<svg width="190" height="170" viewBox="0 0 190 170" fill="none" xmlns="http://www.w3.org/2000/svg">
<path d="M38.6293 110.72L38.4546 110.673L38.2904 110.748L1.59223 127.68L32.2214 13.3707C34.0173 6.66817 42.1525 2.81376 50.4423 5.03501L173.638 38.0451C181.928 40.2664 187.046 47.672 185.25 54.3745L164.646 131.268C162.85 137.97 154.715 141.825 146.425 139.603L38.6293 110.72Z" fill="#FDFFFC" stroke="#F4EEEC"/>
<path d="M52.3297 55.3088L54.802 46.0823L51.6492 45.2375L52.0757 43.6456L60.375 45.8694L59.9484 47.4613L56.7802 46.6123L54.308 55.8389L52.3297 55.3088ZM58.8953 57.068L61.8769 45.9406L63.8551 46.4706L62.6127 51.1071C62.9835 50.7536 63.417 50.5164 63.9133 50.3954C64.4225 50.2668 64.9605 50.2785 65.5272 50.4303C66.4751 50.6843 67.1266 51.1791 67.4816 51.9147C67.8469 52.6531 67.875 53.5993 67.5658 54.7532L66.4063 59.0806L64.4435 58.5547L65.5534 54.4128C65.73 53.7534 65.7314 53.2126 65.5574 52.7905C65.3936 52.3712 65.0285 52.0856 64.4618 51.9338C63.9054 51.7847 63.3893 51.8562 62.9135 52.1484C62.448 52.4433 62.1213 52.941 61.9336 53.6416L60.8735 57.5981L58.8953 57.068ZM71.7372 51.0176C71.3766 50.921 71.1068 50.7327 70.9278 50.4529C70.7591 50.1757 70.7189 49.8723 70.8072 49.5426C70.8956 49.2129 71.0807 48.9754 71.3626 48.8301C71.6575 48.6772 71.9853 48.6491 72.3459 48.7457C72.7065 48.8424 72.9712 49.0292 73.1399 49.3063C73.3216 49.5759 73.3684 49.8755 73.28 50.2052C73.1917 50.5349 73 50.7762 72.7051 50.9291C72.4204 51.0847 72.0978 51.1142 71.7372 51.0176ZM68.3752 59.6082L70.4292 51.9426L72.4074 52.4726L70.3534 60.1382L68.3752 59.6082ZM75.5368 61.7259C74.8568 61.5437 74.2882 61.2754 73.831 60.921C73.3766 60.5562 73.0472 60.1367 72.8431 59.6624C72.6389 59.188 72.5749 58.685 72.6511 58.1533L74.6448 58.6875C74.6265 59.0028 74.7224 59.3046 74.9323 59.5927C75.1552 59.8733 75.4831 60.0716 75.9158 60.1876C76.3486 60.3035 76.6863 60.3001 76.929 60.1774C77.182 60.0575 77.3388 59.8842 77.3996 59.6575C77.4879 59.3278 77.403 59.0676 77.1449 58.877C76.8895 58.6761 76.5195 58.4499 76.0347 58.1985C75.7243 58.0381 75.4129 57.8608 75.1005 57.6666C74.7881 57.4725 74.5084 57.2595 74.2613 57.0277C74.0273 56.7883 73.8558 56.5215 73.7469 56.2273C73.6408 55.9228 73.6374 55.585 73.7368 55.2141C73.919 54.5341 74.3401 54.0341 75.0001 53.714C75.6704 53.3966 76.495 53.3691 77.4738 53.6314C78.3805 53.8743 79.0451 54.2788 79.4677 54.8448C79.9005 55.4135 80.0691 56.0826 79.9734 56.8521L78.1033 56.351C78.1418 55.754 77.7902 55.356 77.0484 55.1573C76.6774 55.0579 76.3696 55.0527 76.1249 55.1417C75.8905 55.2335 75.7443 55.3876 75.6863 55.604C75.6256 55.8307 75.7267 56.051 75.9896 56.265C76.2525 56.479 76.616 56.7089 77.0802 56.9548C77.5829 57.222 78.035 57.4922 78.4366 57.7655C78.8513 58.0312 79.1526 58.3493 79.3404 58.7199C79.531 59.0802 79.5531 59.5333 79.4068 60.0794C79.2901 60.5561 79.0519 60.9506 78.6921 61.2628C78.3324 61.575 77.8814 61.7744 77.3392 61.861C76.797 61.9476 76.1962 61.9026 75.5368 61.7259ZM87.6599 55.2841C87.2993 55.1874 87.0295 54.9992 86.8505 54.7193C86.6818 54.4422 86.6416 54.1388 86.7299 53.8091C86.8183 53.4794 87.0034 53.2419 87.2853 53.0966C87.5802 52.9437 87.908 52.9156 88.2686 53.0122C88.6292 53.1088 88.8939 53.2957 89.0626 53.5728C89.2443 53.8424 89.291 54.142 89.2027 54.4717C89.1144 54.8014 88.9227 55.0427 88.6278 55.1956C88.3431 55.3512 88.0205 55.3807 87.6599 55.2841ZM84.2979 63.8746L86.3519 56.209L88.3301 56.7391L86.2761 64.4047L84.2979 63.8746ZM91.4595 65.9923C90.7794 65.8101 90.2108 65.5418 89.7537 65.1874C89.2992 64.8227 88.9699 64.4032 88.7657 63.9288C88.5616 63.4545 88.4976 62.9515 88.5738 62.4197L90.5675 62.9539C90.5492 63.2693 90.645 63.5711 90.855 63.8592C91.0779 64.1398 91.4058 64.3381 91.8385 64.454C92.2712 64.57 92.609 64.5666 92.8517 64.4439C93.1047 64.324 93.2615 64.1507 93.3223 63.924C93.4106 63.5943 93.3257 63.3341 93.0676 63.1435C92.8122 62.9425 92.4422 62.7164 91.9574 62.465C91.647 62.3046 91.3356 62.1272 91.0232 61.9331C90.7108 61.739 90.4311 61.526 90.184 61.2941C89.95 61.0547 89.7785 60.7879 89.6696 60.4937C89.5635 60.1892 89.5601 59.8515 89.6595 59.4806C89.8417 58.8006 90.2628 58.3005 90.9228 57.9804C91.5931 57.6631 92.4177 57.6356 93.3965 57.8979C94.3031 58.1408 94.9678 58.5453 95.3904 59.1113C95.8232 59.68 95.9918 60.3491 95.8961 61.1185L94.026 60.6175C94.0645 60.0204 93.7129 59.6225 92.971 59.4237C92.6001 59.3244 92.2923 59.3192 92.0476 59.4082C91.8132 59.5 91.667 59.6541 91.609 59.8704C91.5483 60.0971 91.6494 60.3175 91.9123 60.5315C92.1752 60.7455 92.5387 60.9754 93.0029 61.2212C93.5055 61.4884 93.9577 61.7587 94.3593 62.0319C94.774 62.2976 95.0752 62.6158 95.2631 62.9864C95.4536 63.3466 95.4758 63.7998 95.3295 64.3459C95.2128 64.8226 94.9746 65.217 94.6148 65.5292C94.2551 65.8414 93.8041 66.0408 93.2619 66.1275C92.7197 66.2141 92.1189 66.169 91.4595 65.9923ZM101.642 68.5221L101.455 60.256L103.418 60.782L103.269 66.6555L106.293 61.5522L108.487 62.1402L108.555 68.0717L111.377 62.9146L113.34 63.4405L109.03 70.5015L106.974 69.9508L106.872 63.7781L103.698 69.0729L101.642 68.5221ZM112.534 71.4406L115.516 60.3131L117.494 60.8432L116.252 65.4796C116.623 65.1262 117.056 64.889 117.552 64.7679C118.062 64.6394 118.6 64.651 119.166 64.8029C120.114 65.0569 120.766 65.5517 121.121 66.2873C121.486 67.0257 121.514 67.9718 121.205 69.1258L120.045 73.4531L118.083 72.9272L119.192 68.7853C119.369 68.1259 119.37 67.5852 119.196 67.1631C119.033 66.7438 118.668 66.4582 118.101 66.3063C117.544 66.1573 117.028 66.2288 116.553 66.5209C116.087 66.8158 115.76 67.3136 115.573 68.0142L114.513 71.9706L112.534 71.4406ZM125.612 75.1435C124.839 74.9364 124.198 74.588 123.689 74.0981C123.18 73.6083 122.835 73.0191 122.655 72.3304C122.475 71.6417 122.49 70.9058 122.7 70.1228C122.913 69.3294 123.267 68.6678 123.762 68.138C124.268 67.6109 124.86 67.256 125.538 67.0734C126.23 66.8832 126.977 66.8958 127.781 67.1111C128.533 67.3126 129.153 67.6556 129.642 68.1399C130.131 68.6242 130.457 69.1976 130.622 69.8602C130.8 70.5152 130.795 71.193 130.607 71.8936C130.577 72.007 130.54 72.1241 130.497 72.2449C130.463 72.3686 130.424 72.496 130.378 72.6272L124.551 71.066C124.432 71.6746 124.513 72.1986 124.792 72.638C125.083 73.0802 125.496 73.373 126.031 73.5166C126.433 73.6242 126.791 73.6264 127.106 73.523C127.434 73.4121 127.704 73.2303 127.915 72.9777L129.924 73.5161C129.65 73.9617 129.289 74.3398 128.842 74.6506C128.407 74.9537 127.912 75.1524 127.357 75.2466C126.812 75.3435 126.23 75.3091 125.612 75.1435ZM127.35 68.7184C126.866 68.5887 126.401 68.6132 125.956 68.792C125.513 68.9605 125.165 69.3091 124.913 69.8379L128.731 70.8607C128.835 70.3476 128.757 69.8961 128.497 69.5062C128.237 69.1163 127.855 68.8537 127.35 68.7184ZM131.174 76.435L133.228 68.7694L134.99 69.2415L134.79 70.7285C135.201 70.3084 135.682 70.0177 136.233 69.8562C136.797 69.6871 137.404 69.6896 138.053 69.8635L137.494 71.9499L136.937 71.8008C136.505 71.6849 136.1 71.6483 135.725 71.6912C135.349 71.734 135.019 71.894 134.735 72.1713C134.461 72.4513 134.245 72.885 134.088 73.4722L133.152 76.965L131.174 76.435ZM140.84 79.2239C140.068 79.0169 139.427 78.6684 138.917 78.1786C138.408 77.6888 138.064 77.0995 137.884 76.4108C137.704 75.7221 137.719 74.9863 137.929 74.2032C138.141 73.4099 138.495 72.7483 138.99 72.2184C139.496 71.6913 140.088 71.3365 140.767 71.1538C141.458 70.9636 142.206 70.9762 143.009 71.1916C143.761 71.3931 144.382 71.736 144.87 72.2203C145.359 72.7046 145.686 73.278 145.85 73.9406C146.028 74.5956 146.023 75.2734 145.836 75.9741C145.805 76.0874 145.768 76.2045 145.725 76.3254C145.692 76.449 145.652 76.5764 145.606 76.7076L139.78 75.1464C139.661 75.755 139.741 76.2791 140.021 76.7184C140.311 77.1606 140.724 77.4535 141.26 77.597C141.662 77.7047 142.02 77.7068 142.335 77.6035C142.663 77.4925 142.932 77.3108 143.143 77.0582L145.152 77.5965C144.878 78.0421 144.518 78.4203 144.07 78.731C143.635 79.0342 143.14 79.2329 142.585 79.327C142.04 79.4239 141.459 79.3896 140.84 79.2239ZM142.579 72.7989C142.094 72.6691 141.629 72.6936 141.184 72.8724C140.741 73.0409 140.394 73.3895 140.142 73.9183L143.959 74.9412C144.063 74.428 143.986 73.9765 143.726 73.5866C143.466 73.1967 143.083 72.9341 142.579 72.7989ZM150.131 81.5146L153.03 70.6962L155.008 71.2263L152.109 82.0446L150.131 81.5146ZM78.1006 84.1537C77.4206 83.9714 76.852 83.7031 76.3948 83.3487C75.9404 82.984 75.6111 82.5645 75.4069 82.0902C75.2027 81.6158 75.1388 81.1128 75.215 80.5811L77.2086 81.1153C77.1904 81.4306 77.2862 81.7324 77.4961 82.0205C77.7191 82.3011 78.047 82.4994 78.4797 82.6153C78.9124 82.7313 79.2502 82.7279 79.4928 82.6052C79.7458 82.4853 79.9027 82.312 79.9634 82.0853C80.0518 81.7556 79.9669 81.4954 79.7088 81.3048C79.4534 81.1039 79.0833 80.8777 78.5985 80.6263C78.2882 80.4659 77.9768 80.2886 77.6644 80.0944C77.352 79.9003 77.0722 79.6873 76.8252 79.4555C76.5912 79.2161 76.4197 78.9493 76.3108 78.6551C76.2047 78.3505 76.2013 78.0128 76.3007 77.6419C76.4829 76.9619 76.904 76.4618 77.564 76.1418C78.2343 75.8244 79.0588 75.7969 80.0377 76.0592C80.9443 76.3021 81.609 76.7066 82.0315 77.2726C82.4644 77.8413 82.633 78.5104 82.5372 79.2799L80.6672 78.7788C80.7057 78.1817 80.3541 77.7838 79.6122 77.5851C79.2413 77.4857 78.9335 77.4805 78.6888 77.5695C78.4544 77.6613 78.3082 77.8154 78.2502 78.0318C78.1895 78.2584 78.2906 78.4788 78.5535 78.6928C78.8164 78.9068 79.1799 79.1367 79.6441 79.3826C80.1467 79.6498 80.5989 79.92 81.0005 80.1932C81.4152 80.459 81.7164 80.7771 81.9043 81.1477C82.0948 81.5079 82.117 81.9611 81.9707 82.5072C81.854 82.9839 81.6158 83.3783 81.256 83.6905C80.8963 84.0027 80.4453 84.2022 79.9031 84.2888C79.3609 84.3754 78.7601 84.3303 78.1006 84.1537ZM86.2759 86.1454C85.4723 85.9301 84.8808 85.5618 84.5015 85.0405C84.1221 84.5193 84.0663 83.7589 84.3341 82.7595L85.2286 79.4213L83.915 79.0693L84.358 77.4156L85.6717 77.7676L86.4543 75.7742L88.2007 76.2422L87.6499 78.2977L89.7209 78.8526L89.2778 80.5062L87.2068 79.9513L86.3082 83.305C86.2088 83.6759 86.2171 83.9542 86.333 84.1399C86.4619 84.318 86.7222 84.4595 87.1137 84.5644L88.0719 84.8212L87.6205 86.5057L86.2759 86.1454ZM92.1902 87.929C91.232 87.6722 90.5703 87.1746 90.2049 86.4363C89.8499 85.7006 89.827 84.7558 90.1362 83.6019L91.2957 79.2745L93.2585 79.8005L92.1486 83.9423C91.9719 84.6017 91.9706 85.1425 92.1446 85.5646C92.3187 85.9867 92.6941 86.275 93.2711 86.4296C93.8172 86.5759 94.3178 86.5003 94.7731 86.2026C95.2386 85.9077 95.5652 85.41 95.7529 84.7093L96.8131 80.7529L98.7913 81.283L96.7373 88.9486L94.9909 88.4806L95.1842 87.141C94.8258 87.5308 94.384 87.799 93.8588 87.9454C93.344 88.0946 92.7878 88.0891 92.1902 87.929ZM102.242 90.6223C101.521 90.4291 100.924 90.0814 100.451 89.5792C99.9782 89.0771 99.6583 88.4779 99.4915 87.7816C99.3247 87.0854 99.3448 86.3509 99.5519 85.5782C99.7589 84.8054 100.107 84.1645 100.597 83.6552C101.09 83.1357 101.665 82.7818 102.323 82.5936C102.983 82.3952 103.674 82.3926 104.395 82.5858C104.972 82.7404 105.448 82.9839 105.823 83.3162C106.198 83.6485 106.467 84.0463 106.63 84.5096L107.839 79.9968L109.817 80.5269L106.835 91.6543L105.074 91.1823L105.151 90.027C104.813 90.3007 104.403 90.5112 103.922 90.6583C103.451 90.8083 102.891 90.7962 102.242 90.6223ZM103.123 89.0032C103.762 89.1744 104.339 89.1026 104.854 88.7878C105.382 88.4655 105.736 87.9695 105.915 87.2998C106.095 86.6301 106.035 86.0288 105.736 85.4959C105.45 84.9555 104.988 84.5997 104.349 84.4286C103.72 84.2602 103.143 84.332 102.618 84.644C102.093 84.956 101.74 85.4468 101.561 86.1165C101.382 86.7862 101.44 87.3927 101.736 87.9358C102.032 88.479 102.495 88.8348 103.123 89.0032ZM108.897 95.8509L111.722 92.4171L111.258 92.2928L110.193 84.338L112.341 84.9137L113.044 90.883L116.73 86.0897L118.832 86.6529L110.999 96.4141L108.897 95.8509Z" fill="black"/>
</svg>
