<svg width="190" height="171" viewBox="0 0 190 171" fill="none" xmlns="http://www.w3.org/2000/svg">
<path d="M38.6294 111.235L38.4547 111.188L38.2905 111.264L1.59235 128.196L32.2215 13.8863C34.0174 7.18379 42.1526 3.32939 50.4424 5.55063L173.638 38.5608C181.928 40.782 187.046 48.1876 185.25 54.8902L164.646 131.783C162.85 138.486 154.715 142.34 146.425 140.119L38.6294 111.235Z" fill="#FDFFFC" stroke="#F4EEEC"/>
<path d="M48.5039 54.7993L50.9761 45.5727L47.8234 44.7279L48.2499 43.1361L56.5491 45.3599L56.1226 46.9517L52.9544 46.1028L50.4821 55.3293L48.5039 54.7993ZM56.3494 57.1002C55.69 56.9235 55.1767 56.6756 54.8095 56.3563C54.4451 56.0268 54.2067 55.6592 54.0945 55.2537C53.9823 54.8482 53.9828 54.4342 54.096 54.0118C54.2865 53.3008 54.7193 52.7984 55.3944 52.5044C56.0695 52.2105 56.9634 52.2126 58.0761 52.5107L60.0234 53.0325L60.0731 52.8471C60.2139 52.3216 60.1681 51.8952 59.9355 51.5679C59.703 51.2405 59.3652 51.0175 58.9222 50.8988C58.5203 50.7911 58.1438 50.7951 57.7925 50.9108C57.4441 51.0162 57.1841 51.2447 57.0126 51.5963L55.0807 51.0787C55.2813 50.5361 55.5965 50.1016 56.0263 49.775C56.4665 49.4512 56.9731 49.2502 57.5462 49.1718C58.1221 49.0832 58.7295 49.1245 59.3683 49.2956C60.4604 49.5883 61.2476 50.0918 61.7298 50.8063C62.2119 51.5208 62.3191 52.3777 62.0513 53.3771L60.7883 58.0908L59.1037 57.6395L59.2496 56.3534C58.9125 56.7048 58.502 56.9592 58.018 57.1167C57.5444 57.2769 56.9882 57.2714 56.3494 57.1002ZM57.2117 55.6748C57.7784 55.8267 58.266 55.7586 58.6745 55.4705C59.0933 55.1851 59.417 54.7805 59.6458 54.2565L57.9612 53.8051C57.4357 53.6643 57.0334 53.6614 56.7543 53.7964C56.478 53.9212 56.3025 54.1226 56.228 54.4008C56.1479 54.6996 56.1991 54.9618 56.3816 55.1874C56.5641 55.413 56.8408 55.5755 57.2117 55.6748ZM62.6761 58.5967L65.6577 47.4692L67.6359 47.9993L65.8759 54.5676L69.4283 52.19L71.7775 52.8194L67.7042 55.4716L70.2335 60.6217L67.7607 59.9591L65.6854 55.2785L64.6543 59.1267L62.6761 58.5967ZM74.8992 52.3804C74.5386 52.2838 74.2688 52.0956 74.0898 51.8157C73.9211 51.5386 73.8809 51.2352 73.9693 50.9055C74.0576 50.5758 74.2427 50.3383 74.5246 50.193C74.8196 50.0401 75.1473 50.012 75.5079 50.1086C75.8686 50.2052 76.1332 50.3921 76.3019 50.6692C76.4837 50.9387 76.5304 51.2384 76.442 51.5681C76.3537 51.8978 76.162 52.1391 75.8671 52.2919C75.5824 52.4476 75.2598 52.4771 74.8992 52.3804ZM71.5372 60.971L73.5912 53.3054L75.5694 53.8355L73.5155 61.5011L71.5372 60.971ZM75.5802 62.0543L77.6342 54.3888L79.3806 54.8567L79.1873 56.1963C79.5458 55.8065 79.9824 55.537 80.4972 55.3878C81.0223 55.2414 81.5888 55.2496 82.1967 55.4125C83.1446 55.6665 83.8012 56.1627 84.1666 56.9011C84.5319 57.6394 84.56 58.5856 84.2508 59.7396L83.0913 64.0669L81.1131 63.5369L82.2229 59.395C82.3996 58.7356 82.4009 58.1948 82.2269 57.7727C82.0529 57.3506 81.6825 57.0637 81.1158 56.9118C80.5595 56.7628 80.0485 56.8357 79.583 57.1306C79.1278 57.4282 78.8063 57.9273 78.6186 58.628L77.5585 62.5844L75.5802 62.0543ZM88.8413 63.1561C88.4704 63.0567 88.1363 62.923 87.839 62.755L87.1139 63.1736C87.2642 63.3133 87.4805 63.454 87.7627 63.5959C88.045 63.7378 88.5127 63.9294 89.1658 64.1706C90.161 64.5367 90.8379 64.9776 91.1967 65.4933C91.5554 66.0091 91.6423 66.6121 91.4573 67.3024C91.3358 67.7558 91.0976 68.1502 90.7427 68.4858C90.385 68.8317 89.9154 69.0592 89.334 69.1685C88.7498 69.288 88.0559 69.2401 87.2523 69.0248C86.1601 68.7321 85.3344 68.29 84.7751 67.6985C84.2131 67.1172 84.0411 66.4196 84.2592 65.6056C84.4442 64.9153 84.9392 64.4074 85.7441 64.082C85.5629 63.9341 85.4088 63.7879 85.2819 63.6435C85.1653 63.5018 85.0655 63.3591 84.9825 63.2154L85.0777 62.8599L86.8033 61.7984C86.3465 61.1128 86.2285 60.3578 86.4494 59.5336C86.5874 59.0184 86.8367 58.5828 87.1972 58.2266C87.5679 57.8732 88.0183 57.6349 88.5482 57.5119C89.0781 57.3889 89.6727 57.4157 90.3321 57.5924C90.7649 57.7083 91.1501 57.8778 91.4879 58.1008L94.3934 58.8794L94.0704 60.0848L92.7319 59.8256C92.8331 60.2723 92.8201 60.7326 92.6931 61.2066C92.5551 61.7218 92.3059 62.1574 91.9454 62.5136C91.5849 62.8698 91.1346 63.108 90.5944 63.2283C90.0645 63.3513 89.4801 63.3273 88.8413 63.1561ZM89.2472 61.6415C89.649 61.7492 90.0077 61.7294 90.3232 61.582C90.6491 61.4374 90.8658 61.1642 90.9735 60.7624C91.0812 60.3606 91.0301 60.0156 90.8202 59.7274C90.6206 59.442 90.3198 59.2455 89.918 59.1378C89.4956 59.0247 89.1266 59.0417 88.811 59.1891C88.4955 59.3364 88.2839 59.611 88.1762 60.0128C88.0685 60.4147 88.1145 60.7583 88.3141 61.0437C88.5137 61.329 88.8247 61.5283 89.2472 61.6415ZM86.1213 65.8892C86.0191 66.2704 86.1183 66.6007 86.419 66.88C86.7271 67.1724 87.1388 67.3876 87.6539 67.5257C88.1485 67.6582 88.5779 67.6628 88.9422 67.5396C89.3038 67.4266 89.5301 67.2002 89.6212 66.8602C89.6958 66.582 89.6548 66.3225 89.4985 66.0819C89.3524 65.844 88.9861 65.6243 88.3996 65.423C87.9854 65.2789 87.6063 65.1276 87.2623 64.9692C86.9193 65.054 86.6546 65.1763 86.4682 65.3362C86.2921 65.4988 86.1765 65.6832 86.1213 65.8892ZM100.058 68.8118C99.3982 68.6351 98.8849 68.3871 98.5177 68.0679C98.1532 67.7383 97.9149 67.3708 97.8027 66.9653C97.6905 66.5597 97.691 66.1458 97.8042 65.7233C97.9946 65.0124 98.4274 64.51 99.1025 64.216C99.7776 63.922 100.672 63.9241 101.784 64.2223L103.732 64.7441L103.781 64.5586C103.922 64.0332 103.876 63.6068 103.644 63.2794C103.411 62.9521 103.073 62.7291 102.63 62.6104C102.228 62.5027 101.852 62.5067 101.501 62.6224C101.152 62.7278 100.892 62.9563 100.721 63.3079L98.7888 62.7902C98.9894 62.2477 99.3047 61.8131 99.7345 61.4866C100.175 61.1628 100.681 60.9617 101.254 60.8834C101.83 60.7948 102.438 60.836 103.076 61.0072C104.169 61.2998 104.956 61.8034 105.438 62.5179C105.92 63.2323 106.027 64.0893 105.759 65.0887L104.496 69.8024L102.812 69.351L102.958 68.065C102.621 68.4163 102.21 68.6708 101.726 68.8282C101.253 68.9884 100.696 68.983 100.058 68.8118ZM100.92 67.3864C101.487 67.5382 101.974 67.4701 102.383 67.182C102.801 66.8967 103.125 66.492 103.354 65.9681L101.669 65.5167C101.144 65.3759 100.742 65.373 100.462 65.508C100.186 65.6327 100.011 65.8342 99.9361 66.1124C99.856 66.4112 99.9073 66.6734 100.09 66.8989C100.272 67.1245 100.549 67.287 100.92 67.3864ZM113.773 72.4867C112.99 72.2769 112.345 71.9219 111.838 71.4218C111.332 70.9217 110.985 70.3207 110.797 69.619C110.62 68.92 110.637 68.179 110.847 67.3959C111.056 66.6129 111.413 65.963 111.916 65.4462C112.429 64.9322 113.03 64.5852 113.718 64.4053C114.407 64.2254 115.143 64.2404 115.926 64.4502C116.905 64.7125 117.66 65.1909 118.192 65.8855C118.726 66.5699 118.966 67.385 118.911 68.3311L116.825 67.7721C116.821 67.3735 116.692 67.0298 116.439 66.741C116.198 66.4445 115.871 66.2411 115.459 66.1307C114.913 65.9843 114.394 66.0662 113.903 66.3762C113.411 66.6861 113.067 67.2069 112.871 67.9384C112.675 68.6699 112.712 69.2928 112.983 69.8071C113.254 70.3214 113.663 70.6517 114.209 70.798C114.621 70.9084 115.004 70.9007 115.358 70.7747C115.722 70.6514 116.007 70.413 116.212 70.0594L118.298 70.6184C117.881 71.4342 117.267 72.0151 116.457 72.3611C115.646 72.7071 114.751 72.749 113.773 72.4867ZM122.962 74.9491C122.22 74.7503 121.596 74.4008 121.09 73.9007C120.594 73.4034 120.25 72.8089 120.06 72.1175C119.883 71.4185 119.901 70.6723 120.113 69.879C120.326 69.0856 120.687 68.4371 121.198 67.9334C121.711 67.4194 122.307 67.071 122.985 66.8884C123.674 66.7085 124.389 66.7179 125.131 66.9167C125.863 67.1127 126.476 67.4594 126.973 67.9568C127.479 68.4569 127.821 69.0565 127.998 69.7555C128.188 70.4469 128.177 71.1893 127.964 71.9827C127.752 72.776 127.389 73.4297 126.876 73.9437C126.376 74.4502 125.781 74.7934 125.093 74.9733C124.404 75.1531 123.694 75.1451 122.962 74.9491ZM123.422 73.2336C123.937 73.3716 124.436 73.3011 124.92 73.022C125.406 72.7327 125.751 72.2068 125.955 71.4443C126.16 70.6819 126.122 70.059 125.843 69.5756C125.567 69.0819 125.176 68.7675 124.671 68.6322C124.146 68.4914 123.64 68.5657 123.154 68.8551C122.681 69.1369 122.342 69.659 122.138 70.4215C121.934 71.1839 121.965 71.8106 122.231 72.3015C122.51 72.7849 122.907 73.0956 123.422 73.2336ZM129.062 76.3846L130.673 70.3727L129.622 70.0911L130.065 68.4374L131.116 68.719L131.356 67.8227C131.604 66.8954 132.013 66.2981 132.581 66.0308C133.16 65.7663 133.851 65.7417 134.655 65.957L135.505 66.1848L135.054 67.8693L134.513 67.7244C134.173 67.6333 133.913 67.6354 133.733 67.7307C133.552 67.826 133.42 68.0333 133.334 68.3527L133.094 69.2491L134.747 69.6922L134.304 71.3459L132.651 70.9028L131.04 76.9147L129.062 76.3846ZM134.616 77.8728L136.227 71.8609L135.176 71.5793L135.619 69.9257L136.67 70.2073L136.91 69.3109C137.158 68.3836 137.567 67.7863 138.135 67.519C138.714 67.2545 139.406 67.2299 140.209 67.4452L141.059 67.673L140.608 69.3576L140.067 69.2126C139.727 69.1215 139.467 69.1236 139.287 69.2189C139.107 69.3142 138.974 69.5215 138.888 69.8409L138.648 70.7373L140.302 71.1804L139.858 72.8341L138.205 72.391L136.594 78.4029L134.616 77.8728ZM143.187 80.3684C142.415 80.1613 141.774 79.8129 141.264 79.3231C140.755 78.8332 140.411 78.244 140.231 77.5553C140.051 76.8666 140.066 76.1307 140.276 75.3477C140.488 74.5543 140.842 73.8927 141.338 73.3629C141.843 72.8358 142.435 72.4809 143.114 72.2983C143.805 72.1081 144.553 72.1207 145.356 72.336C146.108 72.5376 146.729 72.8805 147.217 73.3648C147.706 73.8491 148.033 74.4225 148.198 75.0851C148.375 75.7401 148.37 76.4179 148.183 77.1185C148.152 77.2319 148.115 77.349 148.072 77.4699C148.039 77.5935 147.999 77.7209 147.953 77.8521L142.127 76.2909C142.008 76.8995 142.088 77.4235 142.368 77.8629C142.658 78.3051 143.071 78.5979 143.607 78.7415C144.009 78.8492 144.367 78.8513 144.682 78.7479C145.01 78.637 145.279 78.4553 145.49 78.2027L147.5 78.741C147.226 79.1866 146.865 79.5648 146.417 79.8755C145.982 80.1787 145.487 80.3773 144.932 80.4715C144.387 80.5684 143.806 80.534 143.187 80.3684ZM144.926 73.9433C144.441 73.8136 143.976 73.8381 143.531 74.0169C143.088 74.1854 142.741 74.534 142.489 75.0628L146.306 76.0856C146.41 75.5725 146.333 75.121 146.073 74.7311C145.813 74.3412 145.43 74.0786 144.926 73.9433ZM152.424 82.8433C151.651 82.6363 151.01 82.2878 150.501 81.798C149.992 81.3082 149.647 80.7189 149.467 80.0303C149.287 79.3416 149.302 78.6057 149.512 77.8226C149.725 77.0293 150.079 76.3677 150.574 75.8379C151.08 75.3108 151.672 74.9559 152.35 74.7733C153.042 74.5831 153.789 74.5956 154.593 74.811C155.345 75.0125 155.965 75.3554 156.454 75.8397C156.943 76.324 157.269 76.8975 157.434 77.56C157.612 78.2151 157.607 78.8929 157.419 79.5935C157.389 79.7068 157.352 79.8239 157.309 79.9448C157.276 80.0685 157.236 80.1959 157.19 80.327L151.363 78.7658C151.244 79.3745 151.325 79.8985 151.605 80.3379C151.895 80.78 152.308 81.0729 152.843 81.2164C153.245 81.3241 153.604 81.3263 153.918 81.2229C154.246 81.112 154.516 80.9302 154.727 80.6776L156.736 81.216C156.462 81.6616 156.101 82.0397 155.654 82.3504C155.219 82.6536 154.724 82.8523 154.169 82.9464C153.624 83.0434 153.042 83.009 152.424 82.8433ZM154.162 76.4183C153.678 76.2885 153.213 76.3131 152.768 76.4919C152.325 76.6603 151.978 77.009 151.725 77.5377L155.543 78.5606C155.647 78.0475 155.569 77.5959 155.309 77.206C155.049 76.8161 154.667 76.5536 154.162 76.4183ZM77.2274 84.4353C76.6505 84.2807 76.1746 84.0372 75.7998 83.7049C75.4251 83.3726 75.1562 82.9748 74.9932 82.5115L74.4953 83.5044L72.7334 83.0323L75.715 71.9049L77.6932 72.4349L76.4716 76.9941C76.81 76.7204 77.2146 76.5085 77.6855 76.3586C78.1666 76.2115 78.7317 76.2248 79.3808 76.3988C80.102 76.592 80.6991 76.9397 81.1719 77.4419C81.6447 77.944 81.9645 78.5432 82.1313 79.2394C82.2981 79.9357 82.278 80.6702 82.071 81.4429C81.8639 82.2157 81.5141 82.8618 81.0215 83.3813C80.5317 83.8906 79.9565 84.2444 79.296 84.4429C78.6382 84.6311 77.9487 84.6285 77.2274 84.4353ZM77.274 82.5925C77.9025 82.7609 78.4794 82.6891 79.0047 82.3771C79.53 82.0651 79.8824 81.5743 80.0618 80.9046C80.2413 80.2349 80.1829 79.6284 79.8868 79.0853C79.5906 78.5421 79.1282 78.1863 78.4997 78.0179C77.8609 77.8467 77.2775 77.9223 76.7494 78.2446C76.2344 78.5594 75.8872 79.0516 75.7077 79.7213C75.5283 80.391 75.5815 80.9961 75.8674 81.5365C76.1663 82.0693 76.6352 82.4214 77.274 82.5925ZM82.8153 85.7338L84.8693 78.0682L86.6311 78.5403L86.4315 80.0272C86.8422 79.6072 87.3231 79.3165 87.8744 79.155C88.4387 78.9859 89.0454 78.9884 89.6945 79.1623L89.1354 81.2487L88.5791 81.0996C88.1463 80.9837 87.742 80.9471 87.3661 80.99C86.9902 81.0328 86.6602 81.1928 86.3761 81.4701C86.1023 81.7501 85.8867 82.1837 85.7294 82.771L84.7935 86.2638L82.8153 85.7338ZM92.482 88.5227C91.7092 88.3157 91.0682 87.9672 90.559 87.4774C90.0497 86.9876 89.7052 86.3983 89.5253 85.7096C89.3454 85.0209 89.3604 84.2851 89.5702 83.502C89.7828 82.7087 90.1367 82.0471 90.6321 81.5172C91.1377 80.9901 91.7297 80.6353 92.4081 80.4526C93.0996 80.2624 93.8471 80.275 94.6508 80.4903C95.4029 80.6919 96.0233 81.0348 96.5119 81.5191C97.0006 82.0034 97.3273 82.5768 97.4921 83.2394C97.67 83.8944 97.665 84.5722 97.4773 85.2729C97.4469 85.3862 97.41 85.5033 97.3666 85.6242C97.3335 85.7478 97.2938 85.8752 97.2476 86.0064L91.4211 84.4452C91.3022 85.0538 91.3827 85.5779 91.6625 86.0172C91.9526 86.4594 92.3655 86.7523 92.9013 86.8958C93.3031 87.0035 93.6615 87.0056 93.9763 86.9023C94.3042 86.7913 94.5737 86.6096 94.785 86.357L96.7941 86.8953C96.5201 87.3409 96.1592 87.7191 95.7116 88.0298C95.277 88.333 94.782 88.5316 94.2267 88.6258C93.6817 88.7227 93.1001 88.6884 92.482 88.5227ZM94.2201 82.0976C93.7359 81.9679 93.271 81.9924 92.8255 82.1712C92.3829 82.3397 92.0355 82.6883 91.7833 83.2171L95.6007 84.24C95.705 83.7268 95.6273 83.2753 95.3673 82.8854C95.1074 82.4955 94.725 82.2329 94.2201 82.0976ZM100.637 90.7078C99.9774 90.5311 99.4641 90.2831 99.0968 89.9639C98.7324 89.6343 98.4941 89.2668 98.3819 88.8613C98.2697 88.4557 98.2702 88.0418 98.3834 87.6193C98.5738 86.9084 99.0066 86.406 99.6817 86.112C100.357 85.818 101.251 85.8201 102.363 86.1183L104.311 86.6401L104.36 86.4546C104.501 85.9292 104.455 85.5028 104.223 85.1754C103.99 84.8481 103.653 84.6251 103.209 84.5063C102.808 84.3987 102.431 84.4027 102.08 84.5184C101.731 84.6238 101.471 84.8523 101.3 85.2039L99.368 84.6862C99.5686 84.1437 99.8839 83.7091 100.314 83.3826C100.754 83.0588 101.26 82.8577 101.834 82.7794C102.409 82.6908 103.017 82.732 103.656 82.9032C104.748 83.1958 105.535 83.6994 106.017 84.4139C106.499 85.1283 106.606 85.9853 106.339 86.9847L105.076 91.6984L103.391 91.247L103.537 89.9609C103.2 90.3123 102.789 90.5668 102.305 90.7242C101.832 90.8844 101.276 90.879 100.637 90.7078ZM101.499 89.2824C102.066 89.4342 102.553 89.3661 102.962 89.078C103.381 88.7927 103.704 88.388 103.933 87.864L102.249 87.4127C101.723 87.2719 101.321 87.269 101.042 87.404C100.765 87.5287 100.59 87.7302 100.515 88.0084C100.435 88.3072 100.486 88.5694 100.669 88.7949C100.851 89.0205 101.128 89.183 101.499 89.2824ZM106.963 92.2042L109.945 81.0768L111.923 81.6068L110.163 88.1751L113.716 85.7975L116.065 86.427L111.992 89.0791L114.521 94.2292L112.048 93.5667L109.973 88.886L108.942 92.7343L106.963 92.2042ZM117.08 91.2542L118.847 83.7933L120.964 84.3607L118.749 91.7014L117.08 91.2542ZM117.017 95.0139C116.646 94.9145 116.372 94.7197 116.196 94.4296C116.03 94.1422 115.99 93.8388 116.075 93.5194C116.164 93.1897 116.351 92.9418 116.639 92.7759C116.937 92.6127 117.271 92.5808 117.642 92.6802C117.992 92.7741 118.25 92.9647 118.416 93.2521C118.592 93.5423 118.636 93.8522 118.548 94.1819C118.462 94.5013 118.271 94.7426 117.973 94.9058C117.686 95.0717 117.367 95.1078 117.017 95.0139Z" fill="black"/>
</svg>
