<svg width="189" height="170" viewBox="0 0 189 170" fill="none" xmlns="http://www.w3.org/2000/svg">
<path d="M130.623 135.201L130.798 135.248L130.902 135.395L154.218 168.409L184.848 54.0957C186.644 47.3929 181.526 39.9871 173.236 37.7658L50.0382 4.75497C41.7482 2.53368 33.6128 6.38821 31.8168 13.091L11.2127 89.9864C9.41674 96.6892 14.5349 104.095 22.8249 106.316L130.623 135.201Z" fill="#FDFFFC" stroke="#F4EEEC"/>
<path d="M49.5038 55.2836L51.976 46.0571L48.8232 45.2123L49.2498 43.6205L57.549 45.8442L57.1225 47.4361L53.9542 46.5872L51.482 55.8137L49.5038 55.2836ZM57.3493 57.5846C56.6899 57.4079 56.1766 57.1599 55.8094 56.8407C55.4449 56.5111 55.2066 56.1436 55.0944 55.7381C54.9822 55.3325 54.9827 54.9186 55.0959 54.4961C55.2864 53.7852 55.7192 53.2828 56.3943 52.9888C57.0693 52.6949 57.9633 52.697 59.076 52.9951L61.0233 53.5169L61.073 53.3314C61.2138 52.806 61.1679 52.3796 60.9354 52.0522C60.7029 51.7249 60.3651 51.5019 59.922 51.3832C59.5202 51.2755 59.1437 51.2795 58.7924 51.3952C58.4439 51.5006 58.1839 51.7291 58.0124 52.0807L56.0806 51.5631C56.2812 51.0205 56.5964 50.5859 57.0262 50.2594C57.4664 49.9356 57.973 49.7345 58.5461 49.6562C59.122 49.5676 59.7294 49.6088 60.3682 49.78C61.4603 50.0726 62.2475 50.5762 62.7296 51.2907C63.2118 52.0052 63.319 52.8621 63.0512 53.8615L61.7882 58.5752L60.1036 58.1238L60.2494 56.8378C59.9123 57.1892 59.5018 57.4436 59.0179 57.601C58.5443 57.7612 57.9881 57.7558 57.3493 57.5846ZM58.2116 56.1592C58.7783 56.3111 59.2659 56.2429 59.6744 55.9548C60.0931 55.6695 60.4169 55.2648 60.6457 54.7409L58.9611 54.2895C58.4356 54.1487 58.0333 54.1458 57.7542 54.2808C57.4778 54.4055 57.3024 54.607 57.2278 54.8852C57.1478 55.184 57.199 55.4462 57.3815 55.6718C57.564 55.8973 57.8407 56.0598 58.2116 56.1592ZM63.676 59.0811L66.6576 47.9536L68.6358 48.4836L66.8758 55.0519L70.4282 52.6744L72.7773 53.3038L68.7041 55.956L71.2334 61.1061L68.7606 60.4435L66.6853 55.7629L65.6542 59.6111L63.676 59.0811ZM75.8991 52.8648C75.5385 52.7682 75.2687 52.5799 75.0897 52.3001C74.921 52.023 74.8808 51.7196 74.9691 51.3899C75.0575 51.0602 75.2426 50.8227 75.5245 50.6773C75.8194 50.5245 76.1472 50.4963 76.5078 50.593C76.8684 50.6896 77.1331 50.8764 77.3018 51.1536C77.4835 51.4231 77.5303 51.7227 77.4419 52.0524C77.3536 52.3822 77.1619 52.6234 76.867 52.7763C76.5823 52.9319 76.2597 52.9614 75.8991 52.8648ZM72.5371 61.4554L74.5911 53.7898L76.5693 54.3199L74.5153 61.9855L72.5371 61.4554ZM76.5801 62.5387L78.6341 54.8731L80.3805 55.3411L80.1872 56.6807C80.5456 56.2908 80.9823 56.0213 81.4971 55.8722C82.0222 55.7258 82.5887 55.734 83.1966 55.8969C84.1445 56.1509 84.8011 56.647 85.1665 57.3854C85.5318 58.1238 85.5599 59.07 85.2507 60.2239L84.0912 64.5513L82.1129 64.0212L83.2228 59.8793C83.3995 59.2199 83.4008 58.6792 83.2268 58.2571C83.0528 57.835 82.6824 57.548 82.1157 57.3962C81.5594 57.2471 81.0484 57.32 80.5829 57.6149C80.1277 57.9126 79.8062 58.4117 79.6185 59.1123L78.5583 63.0688L76.5801 62.5387ZM89.8412 63.6405C89.4703 63.5411 89.1362 63.4074 88.8389 63.2394L88.1138 63.658C88.2641 63.7977 88.4804 63.9384 88.7626 64.0803C89.0448 64.2222 89.5125 64.4138 90.1657 64.655C91.1608 65.0211 91.8378 65.462 92.1965 65.9777C92.5553 66.4935 92.6422 67.0965 92.4572 67.7868C92.3357 68.2402 92.0975 68.6346 91.7426 68.9702C91.3849 69.3161 90.9153 69.5436 90.3339 69.6529C89.7497 69.7724 89.0558 69.7245 88.2521 69.5092C87.16 69.2165 86.3343 68.7744 85.775 68.1828C85.213 67.6016 85.041 66.904 85.2591 66.09C85.4441 65.3997 85.939 64.8918 86.744 64.5664C86.5628 64.4185 86.4087 64.2723 86.2818 64.1278C86.1651 63.9862 86.0653 63.8435 85.9824 63.6998L86.0776 63.3443L87.8032 62.2827C87.3464 61.5971 87.2284 60.8422 87.4493 60.018C87.5873 59.5028 87.8366 59.0671 88.197 58.711C88.5678 58.3575 89.0181 58.1193 89.548 57.9963C90.0779 57.8732 90.6726 57.9001 91.332 58.0767C91.7647 58.1927 92.15 58.3622 92.4878 58.5852L95.3933 59.3637L95.0703 60.5692L93.7318 60.3099C93.8329 60.7567 93.82 61.217 93.693 61.691C93.555 62.2061 93.3057 62.6418 92.9453 62.998C92.5848 63.3541 92.1345 63.5924 91.5943 63.7127C91.0644 63.8357 90.48 63.8116 89.8412 63.6405ZM90.247 62.1259C90.6489 62.2336 91.0075 62.2137 91.3231 62.0664C91.649 61.9218 91.8657 61.6486 91.9734 61.2468C92.0811 60.8449 92.0299 60.5 91.82 60.2118C91.6204 59.9264 91.3197 59.7299 90.9179 59.6222C90.4955 59.509 90.1265 59.5261 89.8109 59.6735C89.4954 59.8208 89.2837 60.0954 89.1761 60.4972C89.0684 60.899 89.1144 61.2427 89.314 61.528C89.5136 61.8134 89.8246 62.0127 90.247 62.1259ZM87.1211 66.3736C87.019 66.7548 87.1182 67.0851 87.4188 67.3644C87.727 67.6568 88.1387 67.872 88.6538 68.01C89.1484 68.1426 89.5778 68.1472 89.9421 68.024C90.3037 67.911 90.53 67.6845 90.6211 67.3445C90.6956 67.0664 90.6547 66.8069 90.4983 66.5662C90.3523 66.3283 89.986 66.1087 89.3994 65.9074C88.9853 65.7633 88.6062 65.612 88.2621 65.4536C87.9192 65.5384 87.6545 65.6607 87.4681 65.8206C87.292 65.9832 87.1764 66.1675 87.1211 66.3736ZM101.057 69.2962C100.398 69.1195 99.8847 68.8715 99.5175 68.5523C99.1531 68.2227 98.9147 67.8552 98.8025 67.4496C98.6903 67.0441 98.6908 66.6301 98.804 66.2077C98.9945 65.4968 99.4273 64.9943 100.102 64.7004C100.777 64.4064 101.671 64.4085 102.784 64.7067L104.731 65.2285L104.781 65.043C104.922 64.5175 104.876 64.0911 104.644 63.7638C104.411 63.4365 104.073 63.2134 103.63 63.0947C103.228 62.9871 102.852 62.9911 102.501 63.1068C102.152 63.2122 101.892 63.4407 101.721 63.7923L99.7887 63.2746C99.9893 62.732 100.305 62.2975 100.734 61.9709C101.174 61.6472 101.681 61.4461 102.254 61.3678C102.83 61.2791 103.438 61.3204 104.076 61.4916C105.168 61.7842 105.956 62.2878 106.438 63.0022C106.92 63.7167 107.027 64.5737 106.759 65.5731L105.496 70.2868L103.812 69.8354L103.958 68.5493C103.62 68.9007 103.21 69.1551 102.726 69.3126C102.252 69.4728 101.696 69.4673 101.057 69.2962ZM101.92 67.8708C102.486 68.0226 102.974 67.9545 103.383 67.6664C103.801 67.3811 104.125 66.9764 104.354 66.4524L102.669 66.001C102.144 65.8602 101.741 65.8574 101.462 65.9924C101.186 66.1171 101.011 66.3186 100.936 66.5967C100.856 66.8955 100.907 67.1577 101.09 67.3833C101.272 67.6089 101.549 67.7714 101.92 67.8708ZM114.773 72.9711C113.989 72.7613 113.345 72.4063 112.838 71.9062C112.332 71.4061 111.985 70.8051 111.797 70.1034C111.62 69.4044 111.637 68.6634 111.846 67.8803C112.056 67.0973 112.413 66.4474 112.915 65.9306C113.429 65.4165 114.03 65.0696 114.718 64.8897C115.407 64.7098 116.143 64.7248 116.926 64.9346C117.905 65.1969 118.66 65.6753 119.192 66.3699C119.726 67.0542 119.966 67.8694 119.911 68.8155L117.825 68.2564C117.821 67.8579 117.692 67.5142 117.438 67.2253C117.198 66.9289 116.871 66.7255 116.459 66.615C115.913 66.4687 115.394 66.5506 114.902 66.8605C114.411 67.1705 114.067 67.6913 113.871 68.4228C113.675 69.1543 113.712 69.7772 113.983 70.2915C114.254 70.8058 114.662 71.1361 115.208 71.2824C115.621 71.3928 116.004 71.385 116.358 71.259C116.722 71.1358 117.007 70.8974 117.212 70.5438L119.298 71.1028C118.881 71.9186 118.267 72.4995 117.456 72.8455C116.646 73.1915 115.751 73.2334 114.773 72.9711ZM123.962 75.4334C123.22 75.2347 122.596 74.8852 122.09 74.3851C121.593 73.8877 121.25 73.2933 121.06 72.6019C120.883 71.9029 120.901 71.1567 121.113 70.3634C121.326 69.57 121.687 68.9215 122.198 68.4178C122.711 67.9037 123.307 67.5554 123.985 67.3728C124.674 67.1929 125.389 67.2023 126.131 67.4011C126.862 67.5971 127.476 67.9438 127.972 68.4412C128.479 68.9413 128.821 69.5408 128.998 70.2398C129.188 70.9313 129.177 71.6737 128.964 72.467C128.752 73.2604 128.389 73.9141 127.876 74.4281C127.376 74.9346 126.781 75.2778 126.092 75.4576C125.404 75.6375 124.694 75.6295 123.962 75.4334ZM124.422 73.718C124.937 73.856 125.436 73.7855 125.92 73.5064C126.406 73.217 126.751 72.6911 126.955 71.9287C127.159 71.1663 127.122 70.5434 126.843 70.06C126.567 69.5663 126.176 69.2518 125.671 69.1166C125.146 68.9758 124.64 69.0501 124.154 69.3394C123.681 69.6213 123.342 70.1434 123.138 70.9058C122.934 71.6683 122.964 72.295 123.23 72.7859C123.509 73.2692 123.907 73.5799 124.422 73.718ZM130.062 76.869L131.672 70.8571L130.621 70.5755L131.065 68.9218L132.115 69.2034L132.356 68.307C132.604 67.3798 133.013 66.7825 133.581 66.5152C134.16 66.2506 134.851 66.226 135.655 66.4414L136.505 66.6691L136.054 68.3537L135.513 68.2088C135.173 68.1177 134.913 68.1198 134.732 68.2151C134.552 68.3104 134.419 68.5177 134.334 68.8371L134.094 69.7335L135.747 70.1766L135.304 71.8302L133.651 71.3871L132.04 77.3991L130.062 76.869ZM135.616 78.3572L137.226 72.3453L136.176 72.0637L136.619 70.41L137.67 70.6916L137.91 69.7952C138.158 68.868 138.567 68.2707 139.135 68.0034C139.714 67.7389 140.405 67.7143 141.209 67.9296L142.059 68.1574L141.608 69.8419L141.067 69.697C140.727 69.6059 140.467 69.608 140.287 69.7033C140.106 69.7986 139.974 70.0059 139.888 70.3253L139.648 71.2217L141.301 71.6648L140.858 73.3185L139.205 72.8754L137.594 78.8873L135.616 78.3572ZM144.187 80.8528C143.415 80.6457 142.774 80.2973 142.264 79.8074C141.755 79.3176 141.41 78.7284 141.231 78.0397C141.051 77.351 141.066 76.6151 141.275 75.8321C141.488 75.0387 141.842 74.3771 142.337 73.8473C142.843 73.3202 143.435 72.9653 144.113 72.7827C144.805 72.5925 145.552 72.6051 146.356 72.8204C147.108 73.0219 147.729 73.3649 148.217 73.8492C148.706 74.3335 149.033 74.9069 149.197 75.5695C149.375 76.2245 149.37 76.9023 149.183 77.6029C149.152 77.7162 149.115 77.8334 149.072 77.9542C149.039 78.0779 148.999 78.2053 148.953 78.3365L143.126 76.7753C143.008 77.3839 143.088 77.9079 143.368 78.3473C143.658 78.7895 144.071 79.0823 144.607 79.2259C145.008 79.3335 145.367 79.3357 145.682 79.2323C146.009 79.1214 146.279 78.9396 146.49 78.687L148.499 79.2254C148.225 79.671 147.865 80.0491 147.417 80.3599C146.982 80.663 146.487 80.8617 145.932 80.9559C145.387 81.0528 144.805 81.0184 144.187 80.8528ZM145.925 74.4277C145.441 74.2979 144.976 74.3225 144.531 74.5013C144.088 74.6698 143.741 75.0184 143.489 75.5472L147.306 76.57C147.41 76.0569 147.333 75.6054 147.073 75.2155C146.813 74.8256 146.43 74.563 145.925 74.4277ZM153.424 83.3277C152.651 83.1207 152.01 82.7722 151.501 82.2824C150.992 81.7926 150.647 81.2033 150.467 80.5146C150.287 79.8259 150.302 79.0901 150.512 78.307C150.725 77.5137 151.079 76.8521 151.574 76.3222C152.08 75.7951 152.672 75.4403 153.35 75.2576C154.042 75.0674 154.789 75.08 155.593 75.2954C156.345 75.4969 156.965 75.8398 157.454 76.3241C157.943 76.8084 158.269 77.3819 158.434 78.0444C158.612 78.6994 158.607 79.3773 158.419 80.0779C158.389 80.1912 158.352 80.3083 158.309 80.4292C158.275 80.5528 158.236 80.6802 158.19 80.8114L152.363 79.2502C152.244 79.8589 152.325 80.3829 152.604 80.8223C152.895 81.2644 153.308 81.5573 153.843 81.7008C154.245 81.8085 154.603 81.8106 154.918 81.7073C155.246 81.5963 155.516 81.4146 155.727 81.162L157.736 81.7003C157.462 82.1459 157.101 82.5241 156.654 82.8348C156.219 83.138 155.724 83.3367 155.169 83.4308C154.624 83.5277 154.042 83.4934 153.424 83.3277ZM155.162 76.9027C154.678 76.7729 154.213 76.7974 153.768 76.9762C153.325 77.1447 152.977 77.4934 152.725 78.0221L156.543 79.045C156.647 78.5318 156.569 78.0803 156.309 77.6904C156.049 77.3005 155.667 77.0379 155.162 76.9027ZM78.2273 84.9197C77.6503 84.7651 77.1745 84.5216 76.7997 84.1893C76.425 83.857 76.1561 83.4591 75.9931 82.9958L75.4952 83.9888L73.7333 83.5167L76.7149 72.3892L78.6931 72.9193L77.4715 77.4785C77.8099 77.2047 78.2145 76.9929 78.6853 76.843C79.1665 76.6958 79.7316 76.7092 80.3807 76.8831C81.1019 77.0764 81.6989 77.4241 82.1718 77.9263C82.6446 78.4284 82.9644 79.0276 83.1312 79.7238C83.298 80.4201 83.2779 81.1545 83.0708 81.9273C82.8638 82.7 82.514 83.3462 82.0214 83.8657C81.5316 84.375 80.9564 84.7288 80.2958 84.9273C79.6381 85.1154 78.9486 85.1129 78.2273 84.9197ZM78.2739 83.0769C78.9023 83.2453 79.4793 83.1735 80.0046 82.8615C80.5299 82.5495 80.8823 82.0587 81.0617 81.3889C81.2412 80.7192 81.1828 80.1128 80.8866 79.5696C80.5905 79.0265 80.1281 78.6707 79.4996 78.5023C78.8608 78.3311 78.2774 78.4067 77.7493 78.729C77.2343 79.0438 76.8871 79.536 76.7076 80.2057C76.5282 80.8754 76.5814 81.4805 76.8672 82.0209C77.1662 82.5537 77.6351 82.9057 78.2739 83.0769ZM83.8152 86.2181L85.8691 78.5525L87.631 79.0246L87.4313 80.5116C87.842 80.0916 88.323 79.8009 88.8743 79.6394C89.4386 79.4703 90.0453 79.4728 90.6944 79.6467L90.1353 81.7331L89.579 81.584C89.1462 81.4681 88.7419 81.4315 88.366 81.4743C87.9901 81.5172 87.6601 81.6772 87.376 81.9545C87.1022 82.2345 86.8866 82.6681 86.7293 83.2554L85.7934 86.7482L83.8152 86.2181ZM93.4818 89.0071C92.7091 88.8 92.0681 88.4516 91.5589 87.9618C91.0496 87.4719 90.7051 86.8827 90.5252 86.194C90.3453 85.5053 90.3603 84.7694 90.5701 83.9864C90.7826 83.193 91.1366 82.5314 91.632 82.0016C92.1376 81.4745 92.7296 81.1196 93.408 80.937C94.0995 80.7468 94.847 80.7594 95.6507 80.9747C96.4028 81.1763 97.0232 81.5192 97.5118 82.0035C98.0005 82.4878 98.3272 83.0612 98.492 83.7238C98.6698 84.3788 98.6649 85.0566 98.4772 85.7572C98.4468 85.8706 98.4099 85.9877 98.3665 86.1086C98.3333 86.2322 98.2937 86.3596 98.2475 86.4908L92.421 84.9296C92.3021 85.5382 92.3826 86.0622 92.6624 86.5016C92.9525 86.9438 93.3654 87.2366 93.9012 87.3802C94.303 87.4879 94.6613 87.49 94.9762 87.3866C95.304 87.2757 95.5736 87.094 95.7848 86.8414L97.794 87.3797C97.52 87.8253 97.1591 88.2035 96.7115 88.5142C96.2768 88.8174 95.7819 89.016 95.2266 89.1102C94.6816 89.2071 94.1 89.1727 93.4818 89.0071ZM95.22 82.582C94.7357 82.4523 94.2709 82.4768 93.8254 82.6556C93.3827 82.8241 93.0353 83.1727 92.7832 83.7015L96.6006 84.7243C96.7049 84.2112 96.6271 83.7597 96.3672 83.3698C96.1072 82.9799 95.7248 82.7173 95.22 82.582ZM101.637 91.1922C100.977 91.0155 100.464 90.7675 100.097 90.4483C99.7323 90.1187 99.4939 89.7512 99.3817 89.3456C99.2695 88.9401 99.27 88.5261 99.3832 88.1037C99.5737 87.3928 100.007 86.8903 100.682 86.5964C101.357 86.3024 102.251 86.3045 103.363 86.6027L105.311 87.1245L105.36 86.939C105.501 86.4135 105.455 85.9871 105.223 85.6598C104.99 85.3325 104.652 85.1094 104.209 84.9907C103.808 84.8831 103.431 84.8871 103.08 85.0028C102.731 85.1082 102.471 85.3367 102.3 85.6882L100.368 85.1706C100.569 84.628 100.884 84.1935 101.314 83.8669C101.754 83.5432 102.26 83.3421 102.833 83.2638C103.409 83.1751 104.017 83.2164 104.656 83.3876C105.748 83.6802 106.535 84.1838 107.017 84.8982C107.499 85.6127 107.606 86.4697 107.339 87.4691L106.076 92.1828L104.391 91.7314L104.537 90.4453C104.2 90.7967 103.789 91.0511 103.305 91.2086C102.832 91.3688 102.275 91.3633 101.637 91.1922ZM102.499 89.7668C103.066 89.9186 103.553 89.8505 103.962 89.5624C104.38 89.2771 104.704 88.8724 104.933 88.3484L103.248 87.897C102.723 87.7562 102.321 87.7534 102.042 87.8884C101.765 88.0131 101.59 88.2146 101.515 88.4927C101.435 88.7915 101.486 89.0537 101.669 89.2793C101.851 89.5049 102.128 89.6674 102.499 89.7668ZM107.963 92.6886L110.945 81.5611L112.923 82.0912L111.163 88.6595L114.716 86.2819L117.065 86.9114L112.991 89.5635L115.521 94.7136L113.048 94.051L110.973 89.3704L109.942 93.2187L107.963 92.6886ZM118.08 91.7385L119.847 84.2777L121.964 84.845L119.749 92.1858L118.08 91.7385ZM118.016 95.4983C117.645 95.3989 117.372 95.2041 117.196 94.914C117.03 94.6265 116.99 94.3231 117.075 94.0037C117.163 93.674 117.351 93.4262 117.639 93.2603C117.936 93.0971 118.271 93.0652 118.642 93.1646C118.992 93.2585 119.25 93.4491 119.416 93.7365C119.592 94.0267 119.636 94.3366 119.548 94.6663C119.462 94.9857 119.271 95.227 118.973 95.3902C118.686 95.5561 118.367 95.5921 118.016 95.4983Z" fill="black"/>
</svg>
